<svg xmlns="http://www.w3.org/2000/svg" xmlns:xlink="http://www.w3.org/1999/xlink" version="1.1" x="0px" y="0px" viewBox="0 0 595.3 1052.375" enable-background="new 0 0 595.3 841.9" xml:space="preserve"><g><path fill="#000000" d="M390.7,176.7c80.2,0,110.6-9.5,119.4-14.6c-12.8-2.7-38.3-5.2-62-5.2c-46.3,0-95.1,7.6-119.2,13.8   C349.7,173.9,372.8,176.7,390.7,176.7z"/><path fill="#000000" d="M586,520.6c-2.4-3.6-6.6-12.8-10.4-23c-3.8-10.1-9.2-18.3-13.3-21.9c-4.1-3.6-5.4-3.3-7.9-3   c-2.6-0.9-6.6,0.6-10.6,1.7c-3.9,1.1-23.6,10.9-33.8,16.3c-10.3,5.4-27,14.3-32.6,17.4c-3.6-5.3-8.5-26.9-9.2-31.6   c-0.8-4.7-1.4-12.4-5.7-20.5c-4.4-8.2-7.6-25.4-7.7-29.7s0.8-13.6-0.5-15.3c2.6-1.1,2-5.7,0.8-7.4c-1.2-1.7-5.4-11.9-7.2-19   c-1.7-6.6-7.1-19.7-14.3-28.6c-1.5,6.5-3.4,12.2-5.8,16.8c2.3,4,5.2,10.5,6.7,15.4c2,6.5,0,6.9-5.3,6.8c-5.3-0.1-61.8-1.5-61.8-1.5   c4.5-10.4,17.4-22.9,20.8-26c3.9,8.2,10,7.1,12.2,6c5.9,2.5,11.5,1.4,14,0.3c2,1.5,5.5,0.6,8.1-1c0-0.1,0.1-0.2,0.1-0.3   c9.4-16.1,11.6-46.6,12.7-104.7c1-53.5-12.5-75-12.7-75.2c-0.1-0.1-0.2-0.3-0.2-0.4c-0.2-0.3-2.6-2.7-13.5-2   c-13.8,0.8-16.5,3-17.3,4.6c-0.6,1.2-1.7,5.1-2.5,8.5c0.8-1.9,2.2-4.1,4.6-4.3c3.7-0.3,6.1,4.3,7.7,8.4   c6.1,15.1,17.8,103.7-1.5,155.2c-0.5,1.3-1.9,1.9-3.1,1.4c-1.2-0.5-1.9-1.9-1.4-3.1c18.5-49.4,7.3-137.5,1.5-151.7   c-1.3-3.3-2.3-4.6-2.8-5.2c-0.4,0.6-0.8,1.7-1.1,2.7c-0.3,1.2-1.3,2-2.6,1.9l-4.7-0.4c-0.7-0.1-1.3-0.4-1.7-1s-0.6-1.3-0.4-2   c0.4-1.7,2.2-10,3.6-12.7c1.9-3.6,6.2-6.3,21.3-7.2c14.1-0.9,17.4,3.1,18.2,4.9c1.7,2.7,14.3,25,13.3,77.7c0,0.1,0,0.2,0,0.2   c2.7,0.3,7.1,0.6,10.7,0.2c5.5-0.5,11.5-1,16.2-0.9c0,8.7,2.3,29.5,7.8,38.7c-5.2,1.1-10.3,0.8-19,0.7c-7.3-0.1-12.5,0-16.8,0.1   c-0.2,3.9-0.4,7.7-0.6,11.4c5.6,0.1,23.6,0.3,34.3,0.3c12.7,0,14-8.3,13.9-11.8c13.3,14.6,31.4,18,41.4,18c10,0,12.2-4.7,12.2-7.4   c0-2.7-1.1-5.3-3.9-8c-2.9-2.7-7.4-5.6-15.1-10.6c-7.7-5-9.5-12.8-10.6-17.5s-1.8-6.6-2.6-15.7c-0.8-9.1-2.4-12.2-2.4-12.2   s4.2-9.5,6.2-14.9c9.7-1.5,10-3.8,10-3.8s0.3-5.1,0.6-13.6c6.8-15.3,4.7-31.4,4.5-34.3c-0.2-2.9-4.5-4.2-4.5-4.2s-0.8-6.2-1.1-9.2   c-0.3-3,0.9-6.9-5-9.5c-0.1,0-0.2-0.1-0.2-0.1c-5.4,5.5-21,9.3-30.5,11.1c-23.1,4.4-55.9,6.8-94.7,6.8c-28.1,0-68.6-6.7-93.4-11.3   c-13.3-1.8-27.8-4.5-53.5-9.8c-69.6-14.2-114.4-18.8-132.7-18.8c-18.3,0-26.2,4.2-30.4,8.7c-4.2,4.5-2.3,11.5-1.1,16.3   s2.8,14.9,3.9,20.6s5.4,32.7,6.3,38.9c0.9,6.2,2.9,18.5,3.5,20.2c0.6,1.7,0.2,2.3,0,3.5c-0.5,4.3-0.5,8.8,1.6,10.6   c-3,4.6-8,19-11.9,29.9c-3.9,10.9-11.9,20-17.6,23.4s-7.3,4.5-7.3,11.9c0,7.5,10.1,7.6,14.7,7.9c4.2,4,11.9,9.9,30.5,9.9   s34.3-10.9,42.2-20.6c23.3-11.5,24.8-31.4,26.3-37.9c6.2,1.9,23.9,8,25.6,8.9c-2.9,0-4.8,2.6-5.3,5.1s-4.3,16.7-5.8,22.8   c-1.5,6.1,4.2,6.9,5.5,7c1.7,3.2-4.1,16.2-8.8,27.6s-7.7,16-21.6,44.8s-38.2,77.2-39.8,80.2c-1.9-0.5-2.8,0.8-4.3,2.7   s-4.6,7.9-7.7,12.1c-3,4.2,0.4,6.9,0.4,6.9s-6.7,11.2-9.9,16.3c-6.5,0.6-11.3,5.5-11.3,5.5s-8.2-2.1-24.5-5.4   c-35-6.9-41.4,21.1-44.1,31.1l-7.2,28.4c-3.5,12.8-6.3,15.1-6.3,24.2c0,3.4,0.5,6.8,1.5,10.1c-0.8-4.2-0.5-8.3,1.1-12   c3.7-8.3,17.9-10.9,41.2-12.6c11.4-0.8,24.2-0.5,35.5-0.2c7.7,0.2,14.4,0.4,19.1,0.2c9.7-0.5,17.8-1.1,19.6-3.9   c3.1-4.9,4.7-10.6,4.7-10.6c0.3-1.3,1.7-2.1,3-1.7c1.1,0.3,1.7,1.2,1.8,2.3c11.8-0.4,43.7-1.3,43.7-1.3s2.4,7.2,3.2,7.6   c0.8,0.3,4.8,0.2,5.9-0.3c1.1-0.5,6.5-5.1,7.6-5.3s17.2-0.9,18.9-1.2c1.7-0.3,4.4-1.4,4.5-4.5c14.5-0.6,32.8-11.3,43.8-13.1   c2.7,4.2,5.3,7.4,13,9.1c0.6,5,4.5,14.4,9.8,21.3c-2.1,4.2-8.2,29.7-9.4,38.7c-14.7,0.7-63.6,0.9-146.1-38.4   c-0.1,0.1-0.1,0.2-0.2,0.3c-3.1,4.8-10.9,5.5-23.4,6.1c-4.9,0.2-11.7,0.1-19.5-0.2c-11.2-0.3-23.8-0.7-35,0.2   c-16.4,1.2-34.1,3-37.1,9.7c-4,8.9,3.5,22.3,12.8,35.6c18.4,16.1,47.6,29.9,78.9,42.7c52.4,21.3,102.2,19.2,102.2,19.2   c32.6,0,53.8-9.7,63.7-15.1c11-6,10-8.3,19.3-35.2c5.5-15.8,6.9-29.1,6.9-35.2s0.8-12.5,0.8-12.5s9.2-15.6,9.2-18.9   c0-6-9.4-16.5-14.2-20.2c-4.8-3.8-8.2-6.8-10.4-11.6c3.6-6.6,15.9-30.7,22.3-43.6c6.5-13,13.4-33.5,14.2-36.8   c0.8-3.3,10.6-23.4,12.8-27.5c2.3-4.1,6-9.4,14.2-25.2c5,9.2,34.7,66.4,36.7,69.8c-2.7,1.1-1.4,3.3-0.3,5.1c1.1,1.8,4.1,6,5.7,10.1   c1.7,4.1,3,5.1,5.3,4.5c3.9,9.8,21.3,34,25.2,38.5c-4.7,3.8-16.5,14.5-27.8,23.3c-11.3,8.8-41.7,26.3-55.6,32s-7.1,13.3-5.3,17.4   c1.8,4.1,21.6,36.4,25.5,43c3.9,6.6,8.2,14,17.5,14c20.2,0,49.8-20.4,64.3-31.1c14.5-10.7,49.4-33.4,62.5-42.4   c13.1-9.1,43.9-36.4,55.6-47.3s23.4-20.7,28.4-23.6C589.6,529.3,588.4,524.3,586,520.6z M494.9,267.9c0.5,7.7,2.6,29.8,17.6,40.9   c-13.4-5.6-25.9-9.8-26.6-41.5C485.9,267.3,491.8,267.2,494.9,267.9z M141.4,308.9c-4.1,2.1-24.3,9.4-48.1,11.2   c8.5-7.9,15.7-20.5,13.7-50.3c0,0,1-0.7,1.4-0.4c0.4,0.3,1,2.2,10,4.2c9.1,2,15.5,2.6,27.1,4.9C145,282.7,143.4,303,141.4,308.9z    M373.4,268.2c6.1-1.1,9.4-1.4,9-0.9c0,0-0.8,21.4-0.8,32.5C370.3,296.3,373.4,268.2,373.4,268.2z M334.4,398.6   c-1.2,1.2-8.2,16.7-11.9,30.4c-3.7,13.7-8.4,24.2-11.8,31.3c-3.4,7.1-12,27.7-16.1,30.9c-4.1,3.2-12.2,21.3-16.6,25.8   c-4.4,4.4-10.1,10.9-16.1,13.1c-1.3-2.8-3-3.8-3.6-3.8c-0.6,0-2,0.8-2.2,1.3s-0.2,4.1,0.1,5.1c-2.3,0.5-32.7,4.4-40.8,4.1   c-0.1-3.4-1.2-5-6.9-4.9s-15.9,1.6-17.6,1.2s-5.2-3-7.9-3s-5.3,0.1-5.6,0.6c-0.3,0.5-1.7,4.7-2.1,8.5c-1.5,0-34.4,0.9-36.7,1   c1-2.6,4.4-10.3-18.5-15.9c3-5.1,5.8-12.1,5.8-12.1s2.3,1.1,4-2.6c1.7-3.7,6.5-11.9,7.3-12.9c0.8-1,1.8-4.8,0.8-6   c0.5-1.4,17.8-39.5,24.6-53.2s40.3-89,42.8-97.2c2.5-8.3,2.9-8.8,3.1-12.5c1.2-1.9,3.6-8.2,4-11.2c0.4-3,0.4-5.5-3.5-6.3   c-3.9-0.8-13.1-2.6-13.7-3.6c0-1,1.9-6.3,1.9-6.3L215,305c0,0-1.4,1.7-1.5,2.4c-0.2,0.7,0.9,1.6,1.5,2c0.6,0.4,1.8,0.1,2.3-0.9   c0.5-1,2.3-3.9,2.3-5.7c0-1.8-1.4-2.9-1.3-3.5c0.1-0.7,1.3-2.4,1.3-2.4l16.8-0.9c0,0-9.3,26.5-9.3,37.7c0,5.4,2,15.9,6,17.4   c4,1.6,5.1,2.3,20,2.3c2.4,0,13.2-1.4,13.2-30.6c0-6.5-1.4-21.8,0.4-28.5c3.5-0.8,13.1-4.1,19.3-4.9c6.3-0.8,6.9-0.7,6.9-0.7   s-2.4,4.6-0.3,8.2c0.5,0.9,1.6,2.6,2.5,2.3c0.9-0.4,1.7-2.1,0.8-3.2c-0.9-1.1-0.8-2.2-0.8-2.2s10.6-2.2,19.5-5.1   c0.5,1.5,1.3,7,1.3,7s-7.4,2.9-16,5.3c-1.7,0.5-3.4,1.9-3.3,2.9c-0.1,0.9-0.7,1.7-0.6,3.2s1.1,10.6,3.4,12.5   c1.5,1.2,1.8,1.7,3.6,1.4c1.3,2.5,23.3,51.8,31.9,73.9C334.5,395.8,334.1,397.4,334.4,398.6z M349.9,373.6   c-9.4-21.4-23.1-53.4-28.5-61.3c0-8.7-1.6-23.1-1.9-24.3s-0.7-4.3-2.5-5.4c4-2.1,44.8-13.4,44.8-13.4c-0.4,17.4,2.8,37.1,19.1,42.2   c0,0-0.7,20.8,0.7,33.1C365.4,350.6,349.9,373.6,349.9,373.6z M454.5,521.3c0,0-2.6,1.2-4.8,1.9c-2.3,0.7-1.6,3.5-1.6,3.5   l-12.3,7.6c-4.8-5.1-23-34.4-24.4-36.7c1.1-1.7,1.5-3.3,0.8-4.5c-0.7-1.2-6.4-13.1-7.6-14.5s-2.4-0.5-2.7-1.1   c-0.3-0.5-24.5-47.2-37.9-72.5c30.7-0.2,80.2,2.2,80.2,2.2s2,17.4,2.1,32.2c0.2,14.8,3.4,30.1,7.2,45.2S454.5,521.3,454.5,521.3z"/></g><text x="0" y="856.9" fill="#000000" font-size="5px" font-weight="bold" font-family="'Helvetica Neue', Helvetica, Arial-Unicode, Arial, Sans-serif">Created by David Waschbüsch</text><text x="0" y="861.9" fill="#000000" font-size="5px" font-weight="bold" font-family="'Helvetica Neue', Helvetica, Arial-Unicode, Arial, Sans-serif">from the Noun Project</text></svg>