<svg xmlns="http://www.w3.org/2000/svg" xmlns:xlink="http://www.w3.org/1999/xlink" version="1.1" x="0px" y="0px" viewBox="0 0 90 112.5" enable-background="new 0 0 90 90" xml:space="preserve"><path d="M80.322,8.276c-5.012-5.012-11.005-7.195-16.874-6.148c-5.595,0.998-13.77,5.45-20.944,20.997  c-0.011,0.023-0.025,0.048-0.036,0.072c-1.03-0.723-2.625-0.57-3.611,0.417l-0.725,0.724c-0.693,0.694-0.985,1.624-0.872,2.477  c-0.234,0.133-0.459,0.286-0.656,0.483l-0.721,0.722c-0.41,0.41-0.689,0.916-0.825,1.446c-0.52,0.13-1.019,0.397-1.421,0.8  l-0.724,0.724c-0.41,0.41-0.69,0.914-0.827,1.447c-0.518,0.13-1.017,0.396-1.42,0.798l-0.722,0.724  c-0.204,0.204-0.365,0.437-0.505,0.679c-0.857-0.098-1.796,0.188-2.456,0.85l-0.725,0.725c-1.122,1.125-1.204,2.877-0.179,3.909  l0.308,0.308c-0.853,0.511-1.705,0.968-2.543,1.355C8.299,48.959,3.846,57.134,2.848,62.728c-1.046,5.87,1.136,11.862,6.148,16.874  c4.191,4.19,9.067,6.403,13.985,6.403c0.963,0,1.927-0.084,2.888-0.257c5.595-0.997,13.77-5.45,20.945-20.996  c0.387-0.838,0.843-1.689,1.354-2.542l0.4,0.4c0.467,0.466,1.103,0.724,1.789,0.724c0.772,0,1.545-0.33,2.121-0.905l0.722-0.725  c0.576-0.573,0.906-1.346,0.906-2.118c0-0.01-0.003-0.021-0.003-0.033c0.303-0.151,0.593-0.345,0.84-0.595l0.724-0.723  c0.414-0.415,0.688-0.913,0.82-1.427c0.524-0.138,1.022-0.413,1.423-0.817l0.726-0.726c0.415-0.415,0.688-0.912,0.821-1.426  c0.522-0.139,1.021-0.414,1.426-0.818l0.721-0.725c0.254-0.253,0.447-0.539,0.596-0.84c0.011,0,0.021,0.005,0.031,0.005  c0.771,0,1.543-0.33,2.12-0.907l0.725-0.724c1.059-1.059,1.182-2.665,0.341-3.709c0.02-0.01,0.037-0.021,0.057-0.029  c13.024-6.011,20.328-12.976,21.706-20.699C88.195,19.698,85.824,13.779,80.322,8.276z M58.984,39.648  c10.662-6.347,15.956-11.593,16.59-16.445c0.336-2.57-0.616-4.997-2.832-7.212c-1.961-1.962-4.346-2.82-6.894-2.484  c-6.481,0.858-12.659,8.924-16.935,16.072l-1.161-1.162c5.283-10.389,11.494-16.646,17.522-17.621  c3.33-0.54,6.532,0.615,9.255,3.337c3.094,3.094,4.399,6.302,3.883,9.535c-0.894,5.577-7.182,11.493-18.246,17.163L58.984,39.648z   M58.029,35.459c7.304-4.696,12.581-8.088,12.999-11.987c0.159-1.482-0.384-2.857-1.613-4.087c-1.103-1.104-2.442-1.607-3.865-1.46  c-4.022,0.417-7.945,5.763-13.728,14.562l-0.999-0.999c5.421-9.212,10.998-14.815,15.367-15.393c1.763-0.23,3.301,0.337,4.706,1.741  c1.636,1.636,2.318,3.279,2.089,5.027c-0.526,4.028-5.742,8.9-15.907,14.879l-1.015-1.016  C56.728,36.297,57.386,35.873,58.029,35.459z M55.825,32.737c3.546-5.338,7.669-11.098,10.084-11.349  c0.04-0.004,0.083-0.007,0.127-0.007c0.24,0,0.534,0.083,0.918,0.467c0.675,0.674,0.63,1.095,0.613,1.253  c-0.241,2.242-5.925,5.896-11.42,9.43C56.04,32.6,55.934,32.668,55.825,32.737z M31.792,35.804l0.72-0.723  c0.091-0.091,0.186-0.136,0.25-0.152l0.051,0.051l21.159,21.161c-0.014,0.057-0.053,0.149-0.152,0.249l-0.723,0.725  c-0.096,0.095-0.188,0.135-0.244,0.15L31.64,36.051C31.654,35.995,31.694,35.902,31.792,35.804z M43.653,63.294  C38.472,74.52,32.111,81.1,25.258,82.321c-4.717,0.843-9.618-0.998-13.801-5.182c-4.183-4.183-6.023-9.085-5.182-13.8  c1.222-6.854,7.802-13.214,19.028-18.395c1.196-0.552,2.407-1.224,3.611-1.989l0.78,0.78c-0.449,0.269-0.895,0.523-1.333,0.748  C17.289,50.164,10.301,57.49,9.188,64.585c-0.644,4.101,0.677,7.931,3.82,11.072c2.599,2.6,5.668,3.941,8.967,3.941  c0.628,0,1.266-0.048,1.908-0.146c7.095-1.081,14.268-7.903,20.198-19.21c0.233-0.444,0.494-0.898,0.769-1.353l0.792,0.791  C44.877,60.887,44.205,62.1,43.653,63.294z M31.797,52.18c-5.938,3.919-12.669,8.36-13.111,12.725  c-0.143,1.409,0.348,2.719,1.42,3.792c0.873,0.872,1.919,1.326,3.045,1.326c0.133,0,0.268-0.006,0.403-0.02  c3.795-0.356,7.528-5.84,11.479-11.646c1.357-1.992,2.644-3.869,3.856-5.426l1.021,1.021c-0.133,0.201-0.273,0.402-0.399,0.604  c-6.482,10.35-12.708,16.57-17.084,17.066c-1.466,0.17-2.731-0.308-3.871-1.447c-1.224-1.224-1.723-2.591-1.525-4.182  c0.575-4.616,6.921-10.952,16.977-16.949c0.205-0.121,0.407-0.257,0.611-0.386l0.963,0.964  C34.494,50.398,33.178,51.268,31.797,52.18z M32.508,55.884c-0.117,0.17-0.234,0.344-0.352,0.516  c-2.854,4.192-6.763,9.935-8.928,10.138c-0.121,0.012-0.326,0.03-0.66-0.303c-0.414-0.414-0.446-0.715-0.419-0.979  C22.401,62.771,28.097,58.812,32.508,55.884z M32.671,46.804c-5.158,3.075-17.259,11.071-18.231,18.868  c-0.299,2.409,0.464,4.546,2.27,6.351c1.492,1.492,3.218,2.246,5.14,2.246c0.287,0,0.577-0.018,0.872-0.051  c6.725-0.763,14.045-10.36,19.003-18.276c0.022-0.034,0.048-0.07,0.07-0.105L42.958,57c-0.431,0.682-0.838,1.361-1.189,2.03  c-5.454,10.4-12.116,16.902-18.278,17.842c-3.212,0.485-6.117-0.541-8.637-3.061c-2.564-2.563-3.603-5.532-3.086-8.822  c0.982-6.26,7.465-12.887,17.786-18.183c0.669-0.343,1.352-0.746,2.036-1.176l1.137,1.138  C32.708,46.779,32.689,46.792,32.671,46.804z M51.354,59.858l-0.722,0.724c-0.101,0.102-0.204,0.135-0.259,0.14l-22.407-22.38  c-0.004-0.024,0.007-0.152,0.138-0.283l0.726-0.725c0.11-0.111,0.224-0.14,0.218-0.181l0.665,0.664  c0.001,0.001,0.002,0.002,0.003,0.004l21.364,21.364c0.043,0.043,0.092,0.073,0.138,0.112l0.277,0.277  C51.5,59.599,51.489,59.726,51.354,59.858z M56.791,53.419l-0.728,0.729c-0.094,0.094-0.187,0.134-0.243,0.149L34.608,33.083  c0.014-0.056,0.053-0.148,0.15-0.246l0.726-0.725c0.09-0.09,0.183-0.135,0.246-0.151l21.211,21.212  C56.928,53.229,56.889,53.322,56.791,53.419z M59.758,50.453l-0.724,0.723c-0.089,0.092-0.184,0.137-0.246,0.152l-0.123-0.123  L37.577,30.113c0.015-0.056,0.054-0.147,0.153-0.246l0.721-0.723c0.09-0.089,0.184-0.135,0.248-0.151l21.211,21.212  C59.896,50.26,59.855,50.354,59.758,50.453z M63.228,47.985l-0.721,0.723c-0.101,0.102-0.204,0.135-0.26,0.141l-1.115-1.114  L40.468,27.07c-0.034-0.034-0.076-0.056-0.112-0.087l-0.517-0.516c-0.003-0.024,0.008-0.151,0.139-0.283l0.725-0.725  c0.11-0.11,0.223-0.14,0.218-0.18L63.369,47.7C63.373,47.726,63.363,47.853,63.228,47.985z M83.752,24.782  c-1.149,6.445-7.975,12.722-19.736,18.151c-0.393,0.181-0.778,0.382-1.164,0.582l-0.75-0.748  C73.604,36.76,79.967,30.478,80.99,24.081c0.657-4.107-0.895-8.075-4.613-11.794c-3.341-3.34-7.32-4.746-11.52-4.068  c-4.785,0.774-11.92,4.598-19.046,18.257l-0.724-0.723c0.204-0.392,0.398-0.783,0.578-1.169  C50.847,13.358,57.206,6.778,64.059,5.556c4.718-0.842,9.618,1,13.802,5.182C82.588,15.466,84.57,20.192,83.752,24.782z"/><text x="0" y="105" fill="#000000" font-size="5px" font-weight="bold" font-family="'Helvetica Neue', Helvetica, Arial-Unicode, Arial, Sans-serif">Created by Adriano Gazzellini</text><text x="0" y="110" fill="#000000" font-size="5px" font-weight="bold" font-family="'Helvetica Neue', Helvetica, Arial-Unicode, Arial, Sans-serif">from the Noun Project</text></svg>