<svg xmlns="http://www.w3.org/2000/svg" xmlns:xlink="http://www.w3.org/1999/xlink" version="1.1" x="0px" y="0px" viewBox="0 0 100 125" enable-background="new 0 0 100 100" xml:space="preserve"><g><g><path d="M50.583,39.003c0.889,0,1.71,0.581,1.975,1.477l2.18,7.381l-7.663,2.279l-2.164-7.33    c-0.322-1.088,0.301-2.235,1.392-2.557l3.697-1.165C50.193,39.031,50.391,39.003,50.583,39.003 M48.227,44.074    c0.649,0,1.207-0.488,1.277-1.149c0.079-0.706-0.432-1.34-1.141-1.415c-0.047-0.006-0.094-0.009-0.141-0.009    c-0.646,0-1.204,0.488-1.276,1.146c-0.075,0.708,0.434,1.341,1.141,1.419C48.134,44.071,48.18,44.074,48.227,44.074"/></g><path d="M62.845,75.313l-1.823-6.171l-7.661,2.279l1.837,6.223c0.265,0.896,1.084,1.478,1.974,1.478   c0.194,0,0.39-0.028,0.583-0.085l3.698-1.166C62.544,77.549,63.167,76.405,62.845,75.313z M59.226,74.96   c-0.071,0.658-0.629,1.146-1.276,1.146c-0.048,0-0.095-0.003-0.142-0.008c-0.708-0.076-1.219-0.709-1.141-1.417   c0.072-0.659,0.631-1.149,1.277-1.149c0.046,0,0.094,0.003,0.141,0.008C58.792,73.616,59.303,74.253,59.226,74.96z"/><path d="M55.814,49.316c0.888,0,1.705,0.579,1.973,1.471l1.424,5.114c-0.319,0.167-0.555,0.485-0.599,0.87   c-0.065,0.614,0.376,1.164,0.989,1.231c0.037,0.003,0.073,0.004,0.111,0.004c0.028,0,0.056,0,0.083-0.002l1.399,5.019   c0.326,1.089,0.524,4.227-0.564,4.548l-7.974,2.374c-0.065,0.018-0.129,0.026-0.199,0.026c-1.114,0-2.878-2.377-3.183-3.403   l-1.406-5.041c0.306-0.17,0.53-0.481,0.571-0.854c0.065-0.614-0.378-0.884-0.989-0.948C47.415,59.721,47.378,60,47.342,60   c-0.019,0-0.038,0-0.055,0l-1.422-5.387c-0.325-1.088,0.296-2.375,1.386-2.698l7.975-2.442   C55.422,49.416,55.62,49.316,55.814,49.316"/><g><path d="M63.752,72.679c0.192-0.394,0.39-0.799,0.6-1.219c-0.338-0.035-0.671-0.085-1.001-0.137L63.752,72.679z"/><path d="M44.641,5.124C35.43,4.123,24.924,7.123,23.255,22.472c-0.519,4.775,0.601,53.217,0.601,53.217    c0.711,12.501,7.679,18.263,15.525,19.115c7.846,0.852,13.636-1.625,20.357-11.075c0.174-0.819,0.438-2.079,1.062-3.959    l-2.56,0.808l-0.015,0.005l-0.013,0.004c-0.341,0.101-0.69,0.151-1.043,0.151c-1.616,0-3.065-1.084-3.524-2.636l-0.539-1.829    c-0.569,1.012-1.153,2.205-1.753,3.612c-1.601,3.621-4.622,7.606-10.591,6.958c-5.97-0.648-8.826-6.136-9.029-12.197    c-0.203-6.063-0.423-42.153-0.142-51.095c0.282-8.943,5.658-10.776,9.583-10.349c3.921,0.426,25.942,2.647,29.166,20.6    c-0.506,1.499-2.694,5.746-0.93,6.974c1.765,1.227,1.091,4.26-0.786,4.056c-1.874-0.204-2.083,0.119-2.117,2.013    c-0.033,1.894,1.563,3.103,3.267,3.288c1.705,0.187,6.627-2.213,7.46-9.886c1.039-1.614,1.033-3.169,1.033-3.169    C80.264,23.491,67.324,7.588,44.641,5.124z"/></g></g><text x="0" y="115" fill="#000000" font-size="5px" font-weight="bold" font-family="'Helvetica Neue', Helvetica, Arial-Unicode, Arial, Sans-serif">Created by Matthew Dera</text><text x="0" y="120" fill="#000000" font-size="5px" font-weight="bold" font-family="'Helvetica Neue', Helvetica, Arial-Unicode, Arial, Sans-serif">from the Noun Project</text></svg>